HIERARCHY
ROOT Hips
{
	OFFSET 0.00000 0.00000 0.00000
	CHANNELS 6 Xposition Yposition Zposition Zrotation Yrotation Xrotation 
	JOINT LHipJoint
	{
		OFFSET 0 0 0
		CHANNELS 3 Zrotation Yrotation Xrotation
		JOINT LeftUpLeg
		{
			OFFSET 1.33213 -1.58186 0.78596
			CHANNELS 3 Zrotation Yrotation Xrotation
			JOINT LeftLeg
			{
				OFFSET 2.29717 -6.31144 0.00000
				CHANNELS 3 Zrotation Yrotation Xrotation
				JOINT LeftFoot
				{
					OFFSET 2.38430 -6.55082 0.00000
					CHANNELS 3 Zrotation Yrotation Xrotation
					JOINT LeftToeBase
					{
						OFFSET 0.11863 -0.32594 1.77568
						CHANNELS 3 Zrotation Yrotation Xrotation
						End Site
						{
							OFFSET 0.00000 -0.00000 0.91633
						}
					}
				}
			}
		}
	}
	JOINT RHipJoint
	{
		OFFSET 0 0 0
		CHANNELS 3 Zrotation Yrotation Xrotation
		JOINT RightUpLeg
		{
			OFFSET -1.41575 -1.58186 0.78596
			CHANNELS 3 Zrotation Yrotation Xrotation
			JOINT RightLeg
			{
				OFFSET -2.42012 -6.64922 0.00000
				CHANNELS 3 Zrotation Yrotation Xrotation
				JOINT RightFoot
				{
					OFFSET -2.47254 -6.79327 0.00000
					CHANNELS 3 Zrotation Yrotation Xrotation
					JOINT RightToeBase
					{
						OFFSET -0.15219 -0.41813 1.93430
						CHANNELS 3 Zrotation Yrotation Xrotation
						End Site
						{
							OFFSET -0.00000 -0.00000 0.99984
						}
					}
				}
			}
		}
	}
	JOINT LowerBack
	{
		OFFSET 0 0 0
		CHANNELS 3 Zrotation Yrotation Xrotation
		JOINT Spine
		{
			OFFSET -0.04717 2.09389 -0.14516
			CHANNELS 3 Zrotation Yrotation Xrotation
			JOINT Spine1
			{
				OFFSET 0.02825 2.09433 -0.11325
				CHANNELS 3 Zrotation Yrotation Xrotation
				JOINT Neck
				{
					OFFSET 0 0 0
					CHANNELS 3 Zrotation Yrotation Xrotation
					JOINT Neck1
					{
						OFFSET -0.01210 1.39029 0.12448
						CHANNELS 3 Zrotation Yrotation Xrotation
						JOINT Head
						{
							OFFSET 0.09492 1.38365 0.14559
							CHANNELS 3 Zrotation Yrotation Xrotation
							End Site
							{
								OFFSET 0.03402 1.40343 0.03708
							}
						}
					}
				}
				JOINT LeftShoulder
				{
					OFFSET 0 0 0
					CHANNELS 3 Zrotation Yrotation Xrotation
					JOINT LeftArm
					{
						OFFSET 2.83352 1.10671 -0.20481
						CHANNELS 3 Zrotation Yrotation Xrotation
						JOINT LeftForeArm
						{
							OFFSET 4.77195 -0.00000 -0.00000
							CHANNELS 3 Zrotation Yrotation Xrotation
							JOINT LeftHand
							{
								OFFSET 2.98444 -0.00000 0.00000
								CHANNELS 3 Zrotation Yrotation Xrotation
								JOINT LeftFingerBase
								{
									OFFSET 0 0 0
									CHANNELS 3 Zrotation Yrotation Xrotation
									JOINT LeftHandIndex1
									{
										OFFSET 0.99228 -0.00000 0.00000
										CHANNELS 3 Zrotation Yrotation Xrotation
										End Site
										{
											OFFSET 0.80001 -0.00000 0.00000
										}
									}
								}
								JOINT LThumb
								{
									OFFSET 0 0 0
									CHANNELS 3 Zrotation Yrotation Xrotation
									End Site
									{
										OFFSET 0.81222 -0.00000 0.81222
									}
								}
							}
						}
					}
				}
				JOINT RightShoulder
				{
					OFFSET 0 0 0
					CHANNELS 3 Zrotation Yrotation Xrotation
					JOINT RightArm
					{
						OFFSET -3.23760 1.11106 0.06723
						CHANNELS 3 Zrotation Yrotation Xrotation
						JOINT RightForeArm
						{
							OFFSET -4.62052 -0.00000 0.00000
							CHANNELS 3 Zrotation Yrotation Xrotation
							JOINT RightHand
							{
								OFFSET -2.95332 -0.00000 0.00000
								CHANNELS 3 Zrotation Yrotation Xrotation
								JOINT RightFingerBase
								{
									OFFSET 0 0 0
									CHANNELS 3 Zrotation Yrotation Xrotation
									JOINT RightHandIndex1
									{
										OFFSET -0.99096 -0.00000 0.00000
										CHANNELS 3 Zrotation Yrotation Xrotation
										End Site
										{
											OFFSET -0.79893 -0.00000 0.00000
										}
									}
								}
								JOINT RThumb
								{
									OFFSET 0 0 0
									CHANNELS 3 Zrotation Yrotation Xrotation
									End Site
									{
										OFFSET -0.81113 -0.00000 0.81113
									}
								}
							}
						}
					}
				}
			}
		}
	}
}
MOTION
Frames: 12
Frame Time: .0083333
-11.0564 16.1324 40.3745 0 0 0 0 0 0 -21 0 0 0 0 0 0 0 0 0 0 0 0 0 0 21 0 0 0 0 0 0 0 0 0 0 0 0 0 0 0 0 0 0 0 0 0 0 -16 0 0 21 0 0 11 0 0 0 -8 0 0 0 0 0 0 0 0 0 0 0 0 0 0 0 0 0 0 0 0 8 0 0 0 0 0 0 0 0 0 0 0 0 0 0 0 0 0
-11.0564 16.1324 40.3745 -178.5690 -11.8872 -169.9460 0.0000 0.0000 0.0000 -19.8064 -10.4918 7.9723 0.0000 -0.0000 -0.0000 0.0174 -5.6811 -4.4727 2.7966 10.3583 30.1450 0.0000 0.0000 0.0000 15.6770 3.6898 -32.3233 -2.3774 -9.6114 27.7273 -0.1022 13.2006 -10.5033 -0.6424 -5.1276 14.2728 -2.1062 -0.4225 -11.0332 2.9372 -0.5630 0.9867 4.2069 -0.4533 7.3038 -9.0010 12.3987 -2.5051 5.3946 16.7416 -6.6284 2.8189 8.3809 -3.0838 0.0000 -0.0000 0.0000 -95.0939 -6.3402 23.3906 9.8069 -16.4370 -1.4198 -0.0000 -0.0000 29.1254 6.3224 11.1126 1.2234 -7.1250 0.0000 -0.0000 -18.2003 40.4654 2.1151 0.0000 -0.0000 0.0000 88.7458 -4.6721 -9.3776 -11.5097 19.0653 -1.9392 0.0000 0.0000 39.2819 0.4284 -6.9425 -0.0518 7.1250 -0.0000 -0.0000 22.5402 -36.0440 5.3028
-11.0569 16.1360 40.3776 -178.5340 -11.9347 -170.0050 0.0000 0.0000 0.0000 -19.6511 -10.5933 7.8514 0.0000 0.0000 0.0000 0.0024 -5.8916 -4.1948 3.2653 11.1126 32.6605 0.0000 0.0000 0.0000 15.6128 4.0158 -32.0845 -2.3660 -9.5901 27.6593 -0.0806 12.4314 -9.7650 -0.6229 -5.0504 14.0525 -1.6658 0.0069 -11.0163 2.3436 0.0127 1.0074 3.4219 -0.1321 7.2611 -8.0645 12.1610 -2.4145 5.6841 16.4253 -6.6504 2.7765 8.1892 -3.0169 -0.0000 0.0000 0.0000 -93.9578 -6.2331 23.7981 9.4173 -15.8230 -1.3116 -0.0000 -0.0000 29.8298 6.0921 10.7801 1.1436 -7.1250 0.0000 -0.0000 -18.2998 40.1286 2.2859 -0.0000 0.0000 0.0000 89.9997 -4.8229 -10.4743 -11.6835 19.3282 -1.9963 0.0000 0.0000 39.3119 0.2768 -6.6219 -0.0319 7.1250 -0.0000 -0.0000 22.3324 -35.7576 5.4155
-11.0623 16.1388 40.3820 -178.5530 -12.0257 -170.0300 0.0000 0.0000 0.0000 -19.6827 -10.6934 7.8522 0.0000 -0.0000 -0.0000 0.0025 -5.8645 -4.1798 3.2457 11.0825 32.5586 0.0000 0.0000 0.0000 15.5075 4.1970 -31.9184 -2.3555 -9.5703 27.5962 -0.0505 11.8058 -8.9765 -0.5771 -4.8648 13.5234 -1.3448 0.3955 -10.9966 1.8423 0.5368 1.0016 2.7961 0.1539 7.2114 -6.9896 11.9224 -2.2234 5.6275 16.0830 -6.7449 2.5903 7.9852 -2.9432 0.0000 0.0000 0.0000 -93.0529 -6.2135 23.9410 8.9696 -15.1119 -1.1922 -0.0000 -0.0000 30.7453 6.1188 10.7112 1.1414 -7.1250 0.0000 -0.0000 -18.2578 40.0651 2.3100 0.0000 0.0000 0.0000 91.0084 -4.9111 -11.4020 -11.8103 19.5196 -2.0385 0.0000 0.0000 39.1871 0.0827 -6.3637 -0.0092 7.1250 -0.0000 -0.0000 22.1096 -35.5308 5.4860
-11.0688 16.1392 40.3876 -178.5790 -12.1085 -170.0330 0.0000 0.0000 0.0000 -19.8001 -10.7561 7.9149 0.0000 0.0000 0.0000 0.0125 -5.7256 -4.3673 2.8692 10.4803 30.5465 0.0000 0.0000 0.0000 15.4237 4.2714 -31.8231 -2.3415 -9.5438 27.5118 -0.0131 11.2915 -8.1118 -0.5117 -4.5850 12.7286 -1.0600 0.7891 -10.9260 1.3836 1.0644 0.9511 2.2359 0.4380 7.0992 -6.0193 11.6952 -2.0631 5.5977 15.7616 -6.7766 2.4316 7.7948 -2.8620 -0.0000 -0.0000 0.0000 -92.2518 -6.2370 23.8097 8.4973 -14.3558 -1.0721 -0.0000 -0.0000 31.9156 5.9986 10.7981 1.1278 -7.1250 0.0000 -0.0000 -18.3835 40.1378 2.2929 -0.0000 -0.0000 0.0000 91.9456 -4.9966 -12.2195 -11.9700 19.7596 -2.0921 0.0000 0.0000 38.9415 0.0311 -6.4264 -0.0035 7.1250 -0.0000 -0.0000 22.0859 -35.5921 5.4437
-11.0736 16.1383 40.3926 -178.4830 -12.2223 -170.2880 0.0000 0.0000 0.0000 -19.7638 -10.7753 8.1484 0.0000 -0.0000 -0.0000 0.0134 -5.7010 -4.3737 2.8279 10.4110 30.3183 0.0000 0.0000 0.0000 15.5029 4.2425 -31.4999 -2.3279 -9.5181 27.4299 0.0193 10.7751 -7.2532 -0.3599 -3.8540 10.6663 -0.6046 1.1648 -10.5851 0.9367 1.5435 0.9412 1.5777 0.7043 6.8966 -5.2456 11.4832 -2.0526 5.8165 15.4767 -6.6552 2.3954 7.6259 -2.7523 -0.0000 -0.0000 0.0000 -91.4441 -6.2816 23.1263 8.0105 -13.5699 -0.9546 -0.0000 -0.0000 33.5125 5.7687 10.8010 1.0846 -7.1250 0.0000 -0.0000 -18.5776 40.1210 2.3272 -0.0000 -0.0000 0.0000 92.9387 -5.1265 -12.8008 -12.2078 20.1155 -2.1732 0.0000 0.0000 38.5952 0.0382 -6.6843 -0.0044 7.1250 -0.0000 -0.0000 22.1613 -35.8307 5.3258
-11.0778 16.1363 40.3960 -178.3060 -12.3563 -170.7510 0.0000 0.0000 0.0000 -19.6046 -10.7782 8.4783 0.0000 0.0000 0.0000 0.0036 -5.7653 -4.1413 3.1591 10.9483 32.1056 0.0000 0.0000 0.0000 15.6486 4.2507 -30.9322 -2.3170 -9.4973 27.3637 0.0750 9.8554 -5.5525 -0.1863 -2.7797 7.6662 0.2527 1.8853 -10.0063 0.0420 2.4672 0.9490 0.2851 1.2121 6.6245 -3.3264 10.9833 -2.1213 5.9181 14.7719 -6.4934 2.1607 7.2164 -2.4797 -0.0000 -0.0000 0.0000 -89.7829 -6.3686 23.6198 7.5432 -12.8097 -0.8480 -0.0000 -0.0000 34.8051 5.6598 10.8092 1.0648 -7.1250 0.0000 -0.0000 -18.6716 40.1196 2.3406 -0.0000 -0.0000 0.0000 94.9493 -5.2851 -14.3592 -12.5177 20.5765 -2.2810 0.0000 0.0000 38.3429 -0.1234 -6.7715 0.0146 7.1250 -0.0000 -0.0000 22.0575 -35.9218 5.2447
-11.0822 16.1350 40.4000 -178.2690 -12.4206 -170.9520 0.0000 0.0000 0.0000 -19.5790 -10.7889 8.6335 0.0000 -0.0000 -0.0000 -0.0014 -5.8157 -4.0347 3.3325 11.2147 33.0075 0.0000 0.0000 0.0000 15.6447 4.2877 -30.6550 -2.3068 -9.4778 27.3016 0.0632 9.6728 -5.6264 -0.1877 -2.7904 7.6958 0.3789 1.9404 -9.8468 -0.0308 2.5330 1.0092 0.1440 1.2515 6.6065 -3.2115 11.0166 -2.2532 5.9936 14.8123 -6.2371 2.1797 7.2408 -2.3700 0.0000 0.0000 0.0000 -89.7062 -6.5256 21.0353 7.0389 -11.9833 -0.7397 -0.0000 -0.0000 37.5132 5.8105 10.7116 1.0836 -7.1250 0.0000 -0.0000 -18.5170 40.0395 2.3577 0.0000 0.0000 0.0000 95.0177 -5.2307 -14.2768 -12.5929 20.6879 -2.3075 0.0000 0.0000 38.1852 -0.2652 -6.6593 0.0308 7.1250 -0.0000 -0.0000 21.9150 -35.8268 5.2609
-11.0880 16.1344 40.4056 -178.3360 -12.4305 -170.8850 0.0000 0.0000 0.0000 -19.6929 -10.8179 8.5994 0.0000 0.0000 0.0000 0.0020 -5.7959 -4.1163 3.1860 10.9903 32.2471 0.0000 0.0000 0.0000 15.5689 4.2414 -30.7192 -2.2963 -9.4577 27.2379 0.0623 9.6066 -5.5875 -0.1567 -2.5506 7.0301 0.3167 1.9738 -9.8975 -0.0483 2.5851 0.9712 0.1695 1.2747 6.5934 -3.2363 11.0663 -2.2490 6.0541 14.8799 -5.9883 2.2068 7.2826 -2.2992 0.0000 0.0000 0.0000 -89.8178 -6.6943 17.7543 6.5259 -11.1363 -0.6369 -0.0000 -0.0000 40.8414 5.9357 10.6501 1.1008 -7.1250 0.0000 -0.0000 -18.3945 39.9916 2.3635 0.0000 0.0000 0.0000 94.9370 -5.2451 -13.9882 -12.7413 20.9070 -2.3602 0.0000 0.0000 37.6166 -0.1228 -6.7482 0.0144 7.1250 -0.0000 -0.0000 22.0516 -35.9002 5.2556
-11.0946 16.1348 40.4132 -178.3050 -12.3997 -170.8210 0.0000 0.0000 0.0000 -19.7088 -10.8002 8.5307 0.0000 0.0000 0.0000 0.0051 -5.7509 -4.1747 3.0046 10.7025 31.2830 0.0000 0.0000 0.0000 15.5812 4.2989 -30.7802 -2.2864 -9.4388 27.1779 0.0560 9.5101 -5.6307 -0.1227 -2.2579 6.2189 0.2591 1.9754 -9.9821 0.0542 2.5855 0.9352 0.3115 1.2701 6.5957 -3.3564 11.1423 -2.0656 6.0371 14.9865 -5.8722 2.2084 7.3426 -2.3071 -0.0000 -0.0000 0.0000 -90.1036 -6.9133 13.6227 6.0430 -10.3339 -0.5469 -0.0000 -0.0000 44.8381 6.0225 10.5713 1.1088 -7.1250 0.0000 -0.0000 -18.2994 39.9236 2.3823 -0.0000 -0.0000 0.0000 94.7158 -5.2613 -13.3500 -12.9537 21.2194 -2.4365 0.0000 0.0000 36.5333 0.0636 -7.1707 -0.0079 7.1250 -0.0000 -0.0000 22.3154 -36.2792 5.1044
-11.0993 16.1355 40.4221 -178.1600 -12.3152 -170.8270 0.0000 0.0000 0.0000 -19.5225 -10.7453 8.3874 0.0000 -0.0000 -0.0000 -0.0005 -5.7328 -4.0004 3.2376 11.0701 32.5167 0.0000 0.0000 0.0000 15.6856 4.5136 -30.7484 -2.2766 -9.4199 27.1178 0.0466 9.3232 -5.6619 -0.1108 -2.1466 5.9109 0.3242 2.0090 -10.0535 0.1460 2.6153 0.9467 0.3788 1.2847 6.6471 -3.4066 11.1639 -1.9677 5.9968 15.0159 -5.7550 2.1996 7.3633 -2.2872 0.0000 -0.0000 0.0000 -90.2486 -7.1134 9.9972 5.7047 -9.7688 -0.4879 -0.0000 -0.0000 48.1223 6.0715 10.5809 1.1189 -7.1250 0.0000 -0.0000 -18.2609 39.9370 2.3706 0.0000 -0.0000 0.0000 94.5825 -5.1530 -12.9212 -13.0871 21.4147 -2.4850 0.0000 0.0000 35.8561 0.0026 -7.4726 -0.0003 7.1250 -0.0000 -0.0000 22.3517 -36.5625 4.9471
-11.1025 16.1359 40.4276 -178.0960 -12.2456 -170.8780 0.0000 0.0000 0.0000 -19.4285 -10.6861 8.3354 0.0000 0.0000 0.0000 -0.0044 -5.7482 -3.8968 3.4395 11.3747 33.5541 0.0000 0.0000 0.0000 15.7328 4.6236 -30.6639 -2.2675 -9.4023 27.0622 0.0440 9.2135 -5.6257 -0.1059 -2.0988 5.7788 0.3881 2.0804 -10.0359 0.1080 2.7052 0.9371 0.3163 1.3319 6.6318 -3.4112 11.1004 -1.9306 6.1515 14.9343 -5.5950 2.2544 7.3234 -2.2510 -0.0000 -0.0000 0.0000 -90.1324 -7.2038 7.0506 5.4457 -9.3345 -0.4449 -0.0000 -0.0000 50.7967 6.0763 10.5889 1.1206 -7.1250 0.0000 -0.0000 -18.2592 39.9450 2.3666 -0.0000 -0.0000 0.0000 94.6586 -5.0785 -12.8105 -13.1696 21.5351 -2.5152 0.0000 0.0000 35.6675 0.0562 -7.5554 -0.0074 7.1250 -0.0000 -0.0000 22.4176 -36.6354 4.9206
